# AST/ASF file generated using VICON BodyLanguage
# -----------------------------------------------
:version 1.10
:name VICON
:units
  mass 1.0
  length 0.45
  angle deg
:documentation
   .ast/.asf automatically generated from VICON data using
   VICON BodyBuilder and BodyLanguage model FoxedUp or BRILLIANT.MOD
:root
   order TX TY TZ RX RY RZ
   axis XYZ
   position 0 0 0  
   orientation 0 0 0 
:bonedata
  begin
     id 1 
     name lhipjoint
     direction 0.64773 -0.699417 0.302095 
     length 2.48597 
     axis 0 0 0  XYZ
  end
  begin
     id 2 
     name lfemur
     direction 0.34202 -0.939693 0  
     length 6.71947  
     axis 0 0 20  XYZ
    dof rx ry rz
    limits (-160.0 20.0)
           (-70.0 70.0)
           (-60.0 70.0)
  end
  begin
     id 3 
     name ltibia
     direction 0.34202 -0.939693 0   
     length 8.08777   
     axis 0 0 20   XYZ
    dof rx
    limits (-10.0 170.0)
  end
  begin
     id 4 
     name lfoot
     direction 0.0808503 -0.222134 0.971658   
     length 2.08264   
     axis -90 7.62852e-016 20   XYZ
    dof rx rz
    limits (-45.0 90.0)
           (-70.0 20.0)
  end
  begin
     id 5 
     name ltoes
     direction 1.53502e-011 -4.22007e-011 1   
     length 1.04662   
     axis -90 7.62852e-016 20   XYZ
    dof rx
    limits (-90.0 20.0)
  end
  begin
     id 6 
     name rhipjoint
     direction -0.610924 -0.726792 0.313919   
     length 2.39233  
     axis 0 0 0  XYZ 
  end
  begin
     id 7 
     name rfemur
     direction -0.34202 -0.939693 0   
     length 6.96955   
     axis 0 0 -20   XYZ
    dof rx ry rz
    limits (-160.0 20.0)
           (-70.0 70.0)
           (-70.0 60.0)
  end
  begin
     id 8 
     name rtibia
     direction -0.34202 -0.939693 0   
     length 8.19584   
     axis 0 0 -20   XYZ
    dof rx
    limits (-10.0 170.0)
 end
 begin
     id 9 
     name rfoot
     direction -0.077777 -0.213691 0.9738   
     length 2.07539  
     axis -90 -7.62852e-016 -20   XYZ
    dof rx rz
    limits (-45.0 90.0)
           (-20.0 70.0)
  end
  begin
     id 10 
     name rtoes
     direction -1.53558e-011 -4.22006e-011 1   
     length 1.04381   
     axis -90 -7.62852e-016 -20   XYZ
    dof rx
    limits (-90.0 20.0)
  end
  begin
     id 11 
     name lowerback
     direction -0.00971646 0.996074 0.0879841   
     length 1.67643   
     axis 0 0 0   XYZ
    dof rx ry rz
    limits (-20.0 45.0)
           (-30.0 30.0)
           (-30.0 30.0)
  end
  begin
     id 12 
     name upperback
     direction 0.0127391 0.991676 0.128127   
     length 1.63741   
     axis 0 0 0   XYZ
    dof rx ry rz
    limits (-20.0 45.0)
           (-30.0 30.0)
           (-30.0 30.0)
  end
  begin
     id 13 
     name thorax
     direction 0.0167583 0.996049 0.0872067   
     length 1.65931   
     axis 0 0 0   XYZ
    dof rx ry rz
    limits (-20.0 45.0)
           (-30.0 30.0)
           (-30.0 30.0)
  end
  begin
     id 14 
     name lowerneck
     direction -0.0317829 0.998312 0.0486079   
     length 1.79021   
     axis 0 0 0   XYZ
    dof rx ry rz
    limits (-20.0 45.0)
           (-30.0 30.0)
           (-30.0 30.0)
  end
  begin
     id 15 
     name upperneck
     direction 0.0896851 0.972452 -0.215159   
     length 1.78797   
     axis 0 0 0   XYZ
    dof rx ry rz
    limits (-20.0 45.0)
           (-30.0 30.0)
           (-30.0 30.0)
  end
  begin
     id 16
     name head
     direction 0.0310949 0.996503 -0.0775582  
     length 1.81549  
     axis 0 0 0   XYZ
    dof rx ry rz
    limits (-20.0 45.0)
           (-30.0 30.0)
           (-30.0 30.0)
  end
  begin
     id 17 
     name lclavicle
     direction 0.853638 0.502051 -0.138733  
     length 3.31627  
     axis 0 0 0   XYZ
    dof ry rz
    limits (-20.0 10.0)
           (0.0 20.0)
  end
  begin
     id 18 
     name lhumerus
     direction 1 -4.48962e-011 -1.41788e-018   
     length 5.54893   
     axis 180 -30 -90   XYZ
    dof rx ry rz
    limits (-60.0 90.0)
           (-90.0 90.0)
           (-90.0 90.0)
  end
  begin
     id 19
     name lradius
     direction 1 -4.48962e-011 -4.95754e-027   
     length 3.02898   
     axis 180 -30 -90   XYZ
    dof rx
    limits (-10.0 170.0)
  end
  begin
     id 20
     name lwrist
     direction 1 -4.48952e-011 -1.03764e-026   
     length 1.51449   
     axis 9.09556e-015 90 90   XYZ
    dof ry
    limits (-180.0 0.0)
 end
  begin
     id 21 
     name lhand
     direction 1 -4.4902e-011 -2.07528e-026   
     length 0.640951   
     axis 1.3242e-014 90 90   XYZ
    dof rx rz
    limits (-90.0 90.0)
           (-45.0 45.0)
  end
  begin
     id 22 
     name lfingers
     direction 1 -4.49014e-011 -4.15056e-026   
     length 0.516751   
     axis 2.64841e-014 90 90   XYZ
    dof rx
    limits (0.0 90.0)
  end
  begin
     id 23
     name lthumb
     direction 0.707107 -6.35008e-011 0.707107   
     length 0.741954   
     axis -90 45 2.85299e-015   XYZ
    dof rx rz
    limits (-45.0 45.0)
           (-45.0 45.0)
  end
  begin
     id 24 
     name rclavicle
     direction -0.888531 0.455324 -0.0565039   
     length 3.20126  
     axis 0 0 0   XYZ 
    dof ry rz
    limits (-10.0 20.0)
           (-20.0 0.0)
  end
  begin
     id 25 
     name rhumerus
     direction -1 -4.48946e-011 -8.98298e-028  
     length 5.3519   
     axis 180 30 90   XYZ
    dof rx ry rz
    limits (-90.0 60.0)
           (-90.0 90.0)
           (-90.0 90.0)
  end
  begin
     id 26 
     name rradius
     direction -1 -4.4899e-011 -3.18779e-027   
     length 3.02531   
     axis 180 30 90   XYZ
    dof rx
    limits (-10.0 170.0)
  end
  begin
     id 27 
     name rwrist
     direction -1 -4.4897e-011 -1.03764e-026   
     length 1.51266   
     axis 9.09556e-015 -90 -90   XYZ
    dof ry
    limits (-180.0 0.0)
  end
  begin
     id 28
     name rhand
     direction -1 -4.48941e-011 -2.07528e-026   
     length 0.78389   
     axis 1.3242e-014 -90 -90   XYZ
    dof rx rz
    limits (-90.0 90.0)
           (-45.0 45.0)
  end
  begin
     id 29
     name rfingers
     direction -1 -4.49012e-011 -4.15056e-026   
     length 0.631992   
     axis 2.64841e-014 -90 -90   XYZ
    dof rx
    limits (0.0 90.0)
  end
  begin
     id 30
     name rthumb
     direction -0.707107 -6.3496e-011 0.707107   
     length 0.907418   
     axis -90 -45 -2.85299e-015   XYZ
    dof rx rz
    limits (-45.0 45.0)
           (-45.0 45.0)
  end
:hierarchy
  begin
    root lhipjoint rhipjoint lowerback
    lhipjoint lfemur
    lfemur ltibia
    ltibia lfoot
    lfoot ltoes
    rhipjoint rfemur
    rfemur rtibia
    rtibia rfoot
    rfoot rtoes
    lowerback upperback
    upperback thorax
    thorax lowerneck lclavicle rclavicle
    lowerneck upperneck
    upperneck head
    lclavicle lhumerus
    lhumerus lradius
    lradius lwrist
    lwrist lhand lthumb
    lhand lfingers
    rclavicle rhumerus
    rhumerus rradius
    rradius rwrist
    rwrist rhand rthumb
    rhand rfingers
  end

#!OML:ASF E:\Style3\Style3.ASF
:FULLY-SPECIFIED
:DEGREES
2124
root -2.47857 17.5296 0.467544 -861.805 56.9254 -889.202
lowerback 21.5271 -2.70166 -4.98516
upperback 11.5826 -2.35726 -10.2846
thorax 0.521829 -0.191505 -7.86802
lowerneck -9.19092 -9.73788 -11.5028
upperneck 3.7945 -14.0985 28.3231
head 5.83576 -5.87687 9.82044
rclavicle -3.81667e-014 7.63333e-014
rhumerus 99.0992 -2.43576 -59.4867
rradius 18.7011
rwrist 83.1523
rhand -27.5382 17.6986
rfingers 7.12502
rthumb -0.939932 -12.2791
lclavicle -1.27222e-014 -1.11319e-014
lhumerus 52.6144 -34.6249 50.6026
lradius 124.14
lwrist 83.0001
lhand -29.1193 34.7858
lfingers 7.12502
lthumb -2.46694 64.7513
rfemur -39.0745 -4.69084 21.2779
rtibia 24.3386
rfoot -10.0214 -25.8461
rtoes -15.0447
lfemur -52.9918 -12.8646 -2.60372
ltibia 22.6883
lfoot 0.569359 5.99046
ltoes -28.7986
2125
root -2.48775 17.531 0.469822 -861.788 57.089 -889.123
lowerback 21.5271 -2.70166 -4.98516
upperback 11.5826 -2.35726 -10.2846
thorax 0.521829 -0.191505 -7.86802
lowerneck -9.19092 -9.73788 -11.5028
upperneck 3.7945 -14.0985 28.3231
head 5.83576 -5.87687 9.82044
rclavicle -3.81667e-014 7.63333e-014
rhumerus 99.0992 -2.43576 -59.4867
rradius 18.7011
rwrist 83.1523
rhand -27.5382 17.6986
rfingers 7.12502
rthumb -0.939932 -12.2791
lclavicle -1.27222e-014 -1.11319e-014
lhumerus 52.6144 -34.6249 50.6026
lradius 124.14
lwrist 83.0001
lhand -29.1193 34.7858
lfingers 7.12502
lthumb -2.46694 64.7513
rfemur -39.0429 -4.57928 21.213
rtibia 24.2959
rfoot -10.1287 -25.7584
rtoes -14.5108
lfemur -52.8989 -12.8932 -2.56457
ltibia 22.6446
lfoot 0.546166 6.22226
ltoes -28.536
2126
root -2.49801 17.5307 0.473072 -861.768 57.2436 -889.076
lowerback 21.5271 -2.70166 -4.98516
upperback 11.5826 -2.35726 -10.2846
thorax 0.521829 -0.191505 -7.86802
lowerneck -9.19092 -9.73788 -11.5028
upperneck 3.7945 -14.0985 28.3231
head 5.83576 -5.87687 9.82044
rclavicle -3.81667e-014 7.63333e-014
rhumerus 99.0992 -2.43576 -59.4867
rradius 18.7011
rwrist 83.1523
rhand -27.5382 17.6986
rfingers 7.12502
rthumb -0.939932 -12.2791
lclavicle -1.27222e-014 -1.11319e-014
lhumerus 52.6144 -34.6249 50.6026
lradius 124.14
lwrist 83.0001
lhand -29.1193 34.7858
lfingers 7.12502
lthumb -2.46694 64.7513
rfemur -39.0758 -4.4701 21.1397
rtibia 24.2889
rfoot -10.1312 -25.731
rtoes -14.3969
lfemur -52.8179 -12.8224 -2.60903
ltibia 22.5776
lfoot 0.515483 6.35147
ltoes -28.1882
2127
root -2.5074 17.5316 0.476383 -861.847 57.4099 -889.146
lowerback 21.5271 -2.70166 -4.98516
upperback 11.5826 -2.35726 -10.2846
thorax 0.521829 -0.191505 -7.86802
lowerneck -9.19092 -9.73788 -11.5028
upperneck 3.7945 -14.0985 28.3231
head 5.83576 -5.87687 9.82044
rclavicle -3.81667e-014 7.63333e-014
rhumerus 99.0992 -2.43576 -59.4867
rradius 18.7011
rwrist 83.1523
rhand -27.5382 17.6986
rfingers 7.12502
rthumb -0.939932 -12.2791
lclavicle -1.27222e-014 -1.11319e-014
lhumerus 52.6144 -34.6249 50.6026
lradius 124.14
lwrist 83.0001
lhand -29.1193 34.7858
lfingers 7.12502
lthumb -2.46694 64.7513
rfemur -39.1196 -4.3872 21.0004
rtibia 24.3021
rfoot -10.0415 -25.7162
rtoes -14.4308
lfemur -52.7425 -12.7514 -2.74499
ltibia 22.5053
lfoot 0.535792 6.41545
ltoes -28.1001
2128
root -2.51637 17.5325 0.479432 -861.878 57.5824 -889.149
lowerback 21.5271 -2.70166 -4.98516
upperback 11.5826 -2.35726 -10.2846
thorax 0.521829 -0.191505 -7.86802
lowerneck -9.19092 -9.73788 -11.5028
upperneck 3.7945 -14.0985 28.3231
head 5.83576 -5.87687 9.82044
rclavicle -3.81667e-014 7.63333e-014
rhumerus 99.0992 -2.43576 -59.4867
rradius 18.7011
rwrist 83.1523
rhand -27.5382 17.6986
rfingers 7.12502
rthumb -0.939932 -12.2791
lclavicle -1.27222e-014 -1.11319e-014
lhumerus 52.6144 -34.6249 50.6026
lradius 124.14
lwrist 83.0001
lhand -29.1193 34.7858
lfingers 7.12502
lthumb -2.46694 64.7513
rfemur -39.1569 -4.32654 20.9143
rtibia 24.3292
rfoot -9.91731 -25.6519
rtoes -14.5593
lfemur -52.6465 -12.7024 -2.81317
ltibia 22.4236
lfoot 0.606601 6.5063
ltoes -28.1476
2129
root -2.52408 17.5327 0.482639 -861.894 57.7757 -889.15
lowerback 21.5271 -2.70166 -4.98516
upperback 11.5826 -2.35726 -10.2846
thorax 0.521829 -0.191505 -7.86802
lowerneck -9.19092 -9.73788 -11.5028
upperneck 3.7945 -14.0985 28.3231
head 5.83576 -5.87687 9.82044
rclavicle -3.81667e-014 7.63333e-014
rhumerus 99.0992 -2.43576 -59.4867
rradius 18.7011
rwrist 83.1523
rhand -27.5382 17.6986
rfingers 7.12502
rthumb -0.939932 -12.2791
lclavicle -1.27222e-014 -1.11319e-014
lhumerus 52.6144 -34.6249 50.6026
lradius 124.14
lwrist 83.0001
lhand -29.1193 34.7858
lfingers 7.12502
lthumb -2.46694 64.7513
rfemur -39.2139 -4.20162 20.7941
rtibia 24.3814
rfoot -9.98657 -25.5994
rtoes -14.1559
lfemur -52.5446 -12.6279 -2.89605
ltibia 22.3109
lfoot 0.679179 6.55606
ltoes -28.2002
